<svg id="section-title-logo" xmlns="http://www.w3.org/2000/svg" xmlns:xlink="http://www.w3.org/1999/xlink" width="23" height="23" viewBox="0 0 23 23">
  <defs>
    <clipPath id="clip-path">
      <rect id="長方形_170" data-name="長方形 170" width="6.686" height="0.92" fill="none"/>
    </clipPath>
    <clipPath id="clip-path-2">
      <rect id="長方形_171" data-name="長方形 171" width="6.884" height="0.92" fill="none"/>
    </clipPath>
    <clipPath id="clip-path-3">
      <rect id="長方形_172" data-name="長方形 172" width="1.226" height="6.939" fill="none"/>
    </clipPath>
    <clipPath id="clip-path-4">
      <rect id="長方形_173" data-name="長方形 173" width="1.226" height="6.937" fill="none"/>
    </clipPath>
    <clipPath id="clip-path-5">
      <rect id="長方形_174" data-name="長方形 174" width="14.414" height="14.603" fill="none"/>
    </clipPath>
    <clipPath id="clip-path-6">
      <rect id="長方形_175" data-name="長方形 175" width="14.414" height="14.607" fill="none"/>
    </clipPath>
    <clipPath id="clip-path-7">
      <rect id="長方形_176" data-name="長方形 176" width="14.552" height="14.414" fill="none"/>
    </clipPath>
    <clipPath id="clip-path-8">
      <rect id="長方形_177" data-name="長方形 177" width="14.352" height="14.414" fill="none"/>
    </clipPath>
  </defs>
  <g id="グループ_67" data-name="グループ 67" transform="translate(16.314 11.042)" clip-path="url(#clip-path)">
    <path id="パス_147" data-name="パス 147" d="M77.805,50.01H72.06a.5.5,0,0,1,0-1h5.745a.5.5,0,0,1,0,1Z" transform="translate(-71.57 -49.05)" fill="#f9f2e5"/>
  </g>
  <g id="グループ_68" data-name="グループ 68" transform="translate(0 11.042)" clip-path="url(#clip-path-2)">
    <path id="パス_148" data-name="パス 148" d="M7.715,50.01H1.97a.5.5,0,1,1,0-1H7.715a.5.5,0,0,1,0,1Z" transform="translate(-1.517 -49.05)" fill="#f9f2e5"/>
  </g>
  <g id="グループ_69" data-name="グループ 69" transform="translate(10.988)" clip-path="url(#clip-path-3)">
    <path id="パス_149" data-name="パス 149" d="M49.51,8.215a.5.5,0,0,1-.5-.5V1.97a.5.5,0,1,1,1,0V7.715A.5.5,0,0,1,49.51,8.215Z" transform="translate(-48.995 -1.517)" fill="#f9f2e5"/>
  </g>
  <g id="グループ_70" data-name="グループ 70" transform="translate(10.988 16.063)" clip-path="url(#clip-path-4)">
    <path id="パス_150" data-name="パス 150" d="M49.51,78.305a.5.5,0,0,1-.5-.5V72.06a.5.5,0,0,1,1,0v5.745A.5.5,0,0,1,49.51,78.305Z" transform="translate(-48.995 -71.319)" fill="#f9f2e5"/>
  </g>
  <g id="グループ_71" data-name="グループ 71" transform="translate(4.237 8.397)" clip-path="url(#clip-path-5)">
    <path id="パス_151" data-name="パス 151" d="M27.113,52.691c-.228,0-.464-.012-.7-.034a6.8,6.8,0,0,1-.7-.1c-.242-.049-.472-.108-.685-.173-.251-.077-.468-.155-.665-.238s-.392-.173-.632-.3q-.322-.172-.61-.366c-.192-.129-.382-.27-.565-.418a6.814,6.814,0,0,1-.527-.479,6.742,6.742,0,0,1-.474-.524c-.144-.175-.285-.365-.418-.563s-.256-.405-.364-.606-.2-.4-.3-.636a7.077,7.077,0,0,1-.239-.668,6.534,6.534,0,0,1-.17-.684,6.651,6.651,0,0,1-.1-.7c-.023-.241-.034-.478-.034-.7s.012-.464.034-.7a6.788,6.788,0,0,1,.1-.7c.04-.21.1-.433.17-.683a7.046,7.046,0,0,1,.237-.666,6.877,6.877,0,0,1,.3-.64c.113-.211.235-.414.364-.606s.259-.369.418-.565a6.765,6.765,0,0,1,.476-.526c.156-.156.331-.315.518-.472l.006,0c.183-.148.373-.289.565-.418s.4-.251.606-.364.4-.2.636-.3a6.671,6.671,0,0,1,.67-.239c.235-.07.464-.127.679-.172h.006c.23-.044.463-.079.693-.1h.005c.241-.023.478-.034.7-.034s.464.012.7.034a6.8,6.8,0,0,1,.7.1c.242.049.472.108.685.173.251.077.468.155.665.238a6.848,6.848,0,0,1,.636.3c.211.113.414.235.606.364s.383.27.565.418a6.809,6.809,0,0,1,.527.479c.161.161.316.332.471.52a6.281,6.281,0,0,1,.422.572c.128.191.249.393.362.6a6.874,6.874,0,0,1,.3.64,7.042,7.042,0,0,1,.237.666c.074.249.13.473.17.682a6.648,6.648,0,0,1,.1.7c.023.241.034.477.034.7a7.143,7.143,0,0,1-.139,1.4c-.046.226-.1.455-.169.679s-.146.443-.237.666a6.878,6.878,0,0,1-.3.64c-.113.211-.235.414-.364.606a7.248,7.248,0,0,1-.894,1.089c-.156.156-.33.315-.518.472l-.006,0c-.183.148-.373.289-.565.418s-.4.251-.606.364a6.875,6.875,0,0,1-.64.3c-.213.087-.435.166-.661.236s-.443.124-.684.173c-.212.043-.44.077-.7.1h-.005C27.574,52.679,27.338,52.691,27.113,52.691Zm-3.93-11.984c-.164.137-.315.275-.45.409a5.78,5.78,0,0,0-.407.449c-.139.171-.257.332-.363.49s-.217.342-.314.523a5.876,5.876,0,0,0-.259.547,6.06,6.06,0,0,0-.2.572c-.065.219-.113.411-.147.589v.005a5.792,5.792,0,0,0-.089.6c-.02.208-.03.412-.03.608s.01.4.03.608a5.647,5.647,0,0,0,.089.6v.006a5.529,5.529,0,0,0,.146.584v0a6.06,6.06,0,0,0,.2.572c.084.2.169.379.259.547s.2.344.314.523.235.333.36.485a6.3,6.3,0,0,0,.858.86c.157.127.323.25.49.362s.34.215.521.313c.207.108.382.191.547.259s.358.138.576.206c.182.056.381.106.59.149a5.791,5.791,0,0,0,.6.089c.208.02.412.03.608.03s.4-.01.606-.03c.229-.024.42-.053.6-.089.208-.042.407-.093.589-.149s.391-.13.576-.206a5.87,5.87,0,0,0,.547-.259c.182-.1.357-.2.521-.313s.331-.233.49-.362.315-.275.449-.409a5.775,5.775,0,0,0,.407-.449l0-.006a5.728,5.728,0,0,0,.359-.485c.11-.164.215-.34.313-.521a5.873,5.873,0,0,0,.259-.547c.079-.194.147-.382.205-.575s.107-.392.147-.591a5.66,5.66,0,0,0,.089-.6V46.1a5.725,5.725,0,0,0,.029-.6c0-.194-.01-.4-.03-.608a5.659,5.659,0,0,0-.089-.6v-.005c-.034-.178-.082-.37-.147-.589a6.055,6.055,0,0,0-.2-.572,5.87,5.87,0,0,0-.259-.547c-.1-.182-.2-.357-.313-.521l0-.006a5.289,5.289,0,0,0-.358-.483c-.135-.164-.269-.312-.409-.452a5.814,5.814,0,0,0-.449-.409c-.157-.127-.323-.25-.49-.362s-.339-.215-.521-.313a5.871,5.871,0,0,0-.547-.259c-.171-.072-.358-.138-.576-.206-.182-.056-.381-.106-.59-.149a5.79,5.79,0,0,0-.6-.089c-.208-.02-.412-.03-.608-.03s-.4.01-.605.03-.4.051-.6.09-.386.089-.592.15a5.673,5.673,0,0,0-.569.2c-.2.085-.382.17-.549.26s-.357.2-.521.313S23.341,40.578,23.183,40.706Z" transform="translate(-19.847 -38.043)" fill="#f9f2e5"/>
  </g>
  <g id="グループ_72" data-name="グループ 72" transform="translate(4.237)" clip-path="url(#clip-path-6)">
    <path id="パス_152" data-name="パス 152" d="M27.113,15.876c-.228,0-.464-.012-.7-.034a6.8,6.8,0,0,1-.7-.1c-.21-.041-.434-.1-.68-.169a7.046,7.046,0,0,1-.666-.237,6.876,6.876,0,0,1-.64-.3c-.211-.113-.414-.235-.606-.364-.211-.142-.4-.279-.568-.42-.208-.174-.373-.324-.521-.474a6.8,6.8,0,0,1-.474-.521c-.15-.185-.291-.376-.42-.568s-.251-.4-.364-.606c-.1-.2-.2-.4-.3-.636a7.072,7.072,0,0,1-.239-.67c-.073-.247-.129-.47-.17-.684a6.767,6.767,0,0,1-.1-.7c-.023-.241-.034-.478-.034-.7s.012-.464.034-.7a6.788,6.788,0,0,1,.1-.7c.041-.21.1-.434.169-.68v0c.069-.226.149-.448.236-.661a6.557,6.557,0,0,1,.3-.64c.113-.211.235-.414.364-.606s.27-.383.418-.565a6.818,6.818,0,0,1,.476-.524c.148-.15.313-.3.518-.472l.006,0c.183-.148.373-.289.565-.418s.4-.251.606-.364a6.876,6.876,0,0,1,.64-.3c.252-.1.462-.177.664-.237a6.646,6.646,0,0,1,.687-.171,6.775,6.775,0,0,1,.7-.1c.241-.023.478-.034.7-.034s.464.012.7.034a6.8,6.8,0,0,1,.7.1c.233.048.462.1.68.169s.453.15.666.237a6.878,6.878,0,0,1,.64.3c.211.113.414.235.606.364.211.142.4.279.568.42.208.174.373.324.521.474s.3.313.472.518a6.676,6.676,0,0,1,.425.575c.126.188.248.392.361.6a6.875,6.875,0,0,1,.3.64c.1.238.175.455.237.664a6.654,6.654,0,0,1,.171.686,6.776,6.776,0,0,1,.1.7c.023.241.034.478.034.7a7.189,7.189,0,0,1-.139,1.405c-.048.233-.1.462-.169.68a7.049,7.049,0,0,1-.237.666,6.552,6.552,0,0,1-.3.64c-.113.21-.235.414-.364.606-.142.211-.279.4-.42.568a6.8,6.8,0,0,1-.474.521c-.148.15-.313.3-.518.471l-.006,0c-.183.148-.373.289-.565.418s-.4.251-.606.364c-.2.1-.4.2-.636.3a7.072,7.072,0,0,1-.67.239c-.247.073-.47.129-.684.17a6.775,6.775,0,0,1-.7.1C27.575,15.864,27.338,15.876,27.113,15.876ZM21.186,6.884c-.064.214-.111.407-.147.588a5.817,5.817,0,0,0-.09.6c-.02.208-.03.412-.03.608s.01.4.03.608a5.792,5.792,0,0,0,.089.6c.036.186.084.379.148.594a6.06,6.06,0,0,0,.2.572c.084.2.169.379.259.547s.2.357.313.521.235.333.364.493a5.777,5.777,0,0,0,.4.444l.005.005c.126.128.269.258.45.409.143.118.3.236.487.359.164.11.339.215.521.313a5.877,5.877,0,0,0,.547.259,6.06,6.06,0,0,0,.572.2c.215.064.408.112.59.147a5.818,5.818,0,0,0,.6.09c.208.02.412.03.608.03s.4-.01.608-.03a5.793,5.793,0,0,0,.6-.089c.186-.036.379-.084.594-.148a6.06,6.06,0,0,0,.572-.2c.2-.084.379-.169.547-.259s.357-.2.521-.313.331-.233.49-.362c.18-.15.322-.28.447-.406l.005-.005a5.8,5.8,0,0,0,.406-.447c.12-.146.239-.306.362-.49.11-.164.215-.34.313-.521a5.577,5.577,0,0,0,.258-.545,6.076,6.076,0,0,0,.2-.573c.057-.191.107-.391.148-.595a5.791,5.791,0,0,0,.089-.6V9.286a5.748,5.748,0,0,0,.029-.6c0-.194-.01-.4-.03-.608a5.794,5.794,0,0,0-.089-.6,5.67,5.67,0,0,0-.146-.589v0a6.054,6.054,0,0,0-.2-.572,5.87,5.87,0,0,0-.259-.547c-.1-.182-.2-.357-.313-.521a5.685,5.685,0,0,0-.362-.49c-.149-.179-.279-.322-.407-.447L31.49,4.3c-.126-.128-.269-.257-.45-.409-.143-.118-.3-.236-.487-.359-.164-.11-.339-.215-.521-.313a5.877,5.877,0,0,0-.547-.259c-.185-.076-.379-.145-.576-.206s-.386-.105-.59-.147a5.789,5.789,0,0,0-.6-.089c-.208-.02-.412-.03-.608-.03s-.4.01-.608.03a5.793,5.793,0,0,0-.6.089,5.666,5.666,0,0,0-.589.147h0c-.171.051-.353.116-.573.2a5.868,5.868,0,0,0-.545.258c-.182.1-.357.2-.521.313s-.331.233-.49.362c-.18.15-.322.28-.447.406l-.005.005a5.793,5.793,0,0,0-.406.447c-.127.157-.25.323-.362.49s-.215.339-.313.521a5.578,5.578,0,0,0-.258.545C21.316,6.495,21.247,6.688,21.186,6.884Z" transform="translate(-19.847 -1.532)" fill="#f9f2e5"/>
  </g>
  <g id="グループ_73" data-name="グループ 73" transform="translate(0 4.294)" clip-path="url(#clip-path-7)">
    <path id="パス_153" data-name="パス 153" d="M8.7,19.91c.228,0,.464.012.7.034a6.8,6.8,0,0,1,.7.1c.21.041.434.1.68.169h0c.226.069.448.149.661.236a6.874,6.874,0,0,1,.64.3c.211.113.414.235.606.364s.383.27.565.418a7.461,7.461,0,0,1,1,1c.15.185.291.376.42.568s.251.4.364.606c.1.2.2.4.3.636l0,.006c.1.251.177.462.237.664.073.247.129.47.17.684a6.774,6.774,0,0,1,.1.7c.023.241.034.478.034.7s-.012.464-.034.7a6.649,6.649,0,0,1-.1.7c-.04.209-.094.426-.17.684l0,.006c-.069.226-.149.448-.236.661a6.877,6.877,0,0,1-.3.64c-.113.211-.235.414-.364.606s-.274.388-.42.566a6.745,6.745,0,0,1-.474.524c-.158.158-.328.313-.518.472a6.677,6.677,0,0,1-.575.425c-.188.126-.392.248-.6.361a6.876,6.876,0,0,1-.64.3c-.253.1-.464.177-.666.237-.247.073-.47.129-.684.17a6.775,6.775,0,0,1-.7.1c-.241.023-.478.034-.7.034s-.464-.012-.7-.034a6.8,6.8,0,0,1-.7-.1c-.233-.048-.462-.1-.68-.169h0c-.226-.069-.448-.149-.661-.236a6.876,6.876,0,0,1-.64-.3c-.211-.113-.414-.235-.606-.364-.211-.142-.4-.279-.568-.42a6.789,6.789,0,0,1-.523-.476c-.161-.161-.316-.332-.471-.52a6.268,6.268,0,0,1-.423-.57c-.126-.188-.248-.392-.361-.6a6.877,6.877,0,0,1-.3-.64,7.046,7.046,0,0,1-.237-.666,7.387,7.387,0,0,1-.274-1.383c-.023-.241-.034-.478-.034-.7s.012-.464.034-.7a6.8,6.8,0,0,1,.1-.7c.048-.233.1-.461.169-.68v0c.069-.226.149-.448.236-.661a6.877,6.877,0,0,1,.3-.64c.113-.211.235-.414.364-.606.142-.211.279-.4.42-.568a7.464,7.464,0,0,1,1-1c.185-.15.376-.291.568-.42s.4-.251.606-.364c.2-.1.4-.2.636-.3a7.071,7.071,0,0,1,.668-.239,6.65,6.65,0,0,1,.686-.171,6.775,6.775,0,0,1,.7-.1C8.241,19.922,8.478,19.91,8.7,19.91Zm1.8,1.266c-.214-.064-.407-.111-.588-.147a5.818,5.818,0,0,0-.6-.09c-.208-.02-.412-.03-.608-.03s-.4.01-.608.03a5.793,5.793,0,0,0-.6.089,5.671,5.671,0,0,0-.589.146h0a6.054,6.054,0,0,0-.572.2c-.2.084-.379.169-.547.259s-.357.2-.521.313-.333.235-.493.364a5.78,5.78,0,0,0-.444.4l-.005.005a5.8,5.8,0,0,0-.406.447c-.12.146-.239.306-.362.49-.11.164-.215.34-.313.521a5.877,5.877,0,0,0-.259.547c-.075.184-.144.378-.2.574s-.106.39-.148.593a5.789,5.789,0,0,0-.089.6c-.02.208-.03.412-.03.608s.01.4.03.608a5.65,5.65,0,0,0,.089.6v.006a5.646,5.646,0,0,0,.146.588,6.076,6.076,0,0,0,.205.575,5.877,5.877,0,0,0,.259.547c.1.181.2.357.313.521a5.305,5.305,0,0,0,.359.485c.137.166.271.314.411.455a5.814,5.814,0,0,0,.449.409c.146.12.306.239.49.362.164.11.339.215.521.313a5.876,5.876,0,0,0,.547.259c.185.076.378.144.574.2s.39.106.592.147a5.788,5.788,0,0,0,.6.089c.208.02.412.03.608.03s.4-.01.608-.03a5.791,5.791,0,0,0,.6-.089c.186-.036.379-.084.594-.148.171-.051.353-.116.573-.2a5.868,5.868,0,0,0,.545-.258c.182-.1.357-.2.521-.313a5.685,5.685,0,0,0,.49-.362c.165-.138.313-.272.45-.409a5.776,5.776,0,0,0,.407-.449c.128-.155.25-.32.364-.49s.215-.339.313-.521a5.876,5.876,0,0,0,.259-.547c.075-.184.144-.377.2-.573.066-.226.113-.413.147-.59v-.006a5.65,5.65,0,0,0,.089-.6c.02-.208.03-.412.03-.608s-.01-.4-.03-.608a5.793,5.793,0,0,0-.089-.6c-.036-.186-.084-.379-.148-.594-.05-.17-.115-.351-.2-.57-.085-.2-.17-.381-.259-.548s-.2-.357-.313-.521-.235-.333-.364-.493a5.778,5.778,0,0,0-.4-.444l-.005-.005a5.8,5.8,0,0,0-.447-.406c-.157-.127-.323-.25-.49-.362s-.339-.215-.521-.313a5.872,5.872,0,0,0-.547-.259C10.891,21.306,10.7,21.237,10.5,21.176Z" transform="translate(-1.548 -19.895)" fill="#f9f2e5"/>
  </g>
  <g id="グループ_74" data-name="グループ 74" transform="translate(8.648 4.294)" clip-path="url(#clip-path-8)">
    <path id="パス_154" data-name="パス 154" d="M45.525,19.91c.225,0,.462.012.7.034a6.653,6.653,0,0,1,.7.1c.209.04.426.094.684.17l.006,0c.226.069.448.149.661.236a6.874,6.874,0,0,1,.64.3c.211.113.414.235.606.364s.388.274.566.42a6.749,6.749,0,0,1,.524.474c.156.156.315.33.472.518l0,.006c.148.183.289.373.418.565s.251.4.364.606a6.883,6.883,0,0,1,.3.64c.092.227.169.442.236.661a6.651,6.651,0,0,1,.172.689c.042.207.076.435.1.694V26.4c.023.241.034.478.034.7s-.012.464-.034.7a6.656,6.656,0,0,1-.1.7c-.046.226-.1.449-.169.68l0,.006c-.069.226-.149.448-.236.661-.08.195-.175.4-.3.636q-.173.322-.366.61c-.132.2-.274.388-.42.566a6.747,6.747,0,0,1-.474.524c-.179.176-.349.331-.523.474a6.268,6.268,0,0,1-.57.423c-.2.135-.4.254-.6.361a6.876,6.876,0,0,1-.64.3,7.047,7.047,0,0,1-.666.237,7.387,7.387,0,0,1-1.383.274c-.241.023-.478.034-.7.034s-.464-.012-.7-.034a6.8,6.8,0,0,1-.7-.1c-.227-.046-.456-.1-.68-.169a7.045,7.045,0,0,1-.666-.237,6.876,6.876,0,0,1-.64-.3c-.211-.113-.415-.235-.606-.364a6.728,6.728,0,0,1-.568-.42,6.389,6.389,0,0,1-.523-.477,6.737,6.737,0,0,1-.474-.524c-.144-.175-.285-.366-.418-.563s-.251-.4-.364-.606c-.1-.2-.2-.4-.3-.636a7.073,7.073,0,0,1-.239-.67c-.067-.221-.124-.446-.172-.683s-.079-.464-.1-.7v-.005c-.023-.241-.034-.478-.034-.7s.012-.464.034-.7a6.8,6.8,0,0,1,.1-.7c.049-.242.108-.472.173-.685s.149-.448.236-.661a6.877,6.877,0,0,1,.3-.64c.113-.211.235-.414.364-.606s.27-.382.418-.565a7.461,7.461,0,0,1,1-1c.2-.161.385-.3.57-.422s.393-.249.6-.362c.2-.1.4-.2.636-.3a7.071,7.071,0,0,1,.668-.239,6.539,6.539,0,0,1,.685-.171,6.647,6.647,0,0,1,.7-.1C45.064,19.922,45.3,19.91,45.525,19.91Zm1.8,1.266c-.226-.066-.413-.113-.59-.147h-.006a5.65,5.65,0,0,0-.6-.089c-.21-.02-.415-.03-.608-.03s-.4.01-.608.03a5.658,5.658,0,0,0-.6.089h-.005a5.531,5.531,0,0,0-.584.146h0a6.054,6.054,0,0,0-.572.2c-.2.084-.379.169-.547.259s-.357.2-.521.313-.321.225-.493.364a5.776,5.776,0,0,0-.444.4l-.005.005a5.8,5.8,0,0,0-.406.447c-.127.157-.25.323-.362.49s-.215.339-.313.521a5.877,5.877,0,0,0-.259.547c-.076.185-.145.379-.206.576s-.106.381-.149.59a5.792,5.792,0,0,0-.089.6c-.02.208-.03.412-.03.608s.01.4.03.606.052.405.09.6.09.4.148.589a6.076,6.076,0,0,0,.205.575c.084.2.169.379.259.547s.2.357.313.521.236.335.362.488a5.792,5.792,0,0,0,.409.452,5.433,5.433,0,0,0,.447.407,5.777,5.777,0,0,0,.49.363c.167.112.342.217.523.314a5.875,5.875,0,0,0,.547.259,6.059,6.059,0,0,0,.572.2c.2.058.4.108.594.148a5.791,5.791,0,0,0,.6.089c.208.02.412.03.608.03s.4-.01.608-.03a5.65,5.65,0,0,0,.6-.089h.006a5.646,5.646,0,0,0,.588-.146,6.074,6.074,0,0,0,.575-.205,5.876,5.876,0,0,0,.547-.259c.173-.093.344-.2.523-.314a5.287,5.287,0,0,0,.482-.358c.153-.126.3-.261.457-.414a5.761,5.761,0,0,0,.4-.446c.128-.156.25-.32.364-.49s.215-.339.313-.521c.108-.207.191-.382.259-.547.075-.184.144-.377.2-.573s.108-.4.148-.595a5.659,5.659,0,0,0,.089-.6c.02-.208.03-.412.03-.608s-.01-.4-.03-.606c-.024-.229-.053-.42-.089-.6a5.671,5.671,0,0,0-.147-.589c-.059-.191-.126-.38-.206-.578a5.872,5.872,0,0,0-.258-.545c-.1-.182-.2-.357-.313-.521s-.233-.331-.362-.49-.275-.315-.409-.45a5.78,5.78,0,0,0-.449-.407c-.155-.128-.32-.25-.49-.364s-.339-.215-.521-.313a5.873,5.873,0,0,0-.547-.259C47.714,21.306,47.521,21.237,47.325,21.176Z" transform="translate(-38.317 -19.895)" fill="#f9f2e5"/>
  </g>
</svg>
